<svg xmlns="http://www.w3.org/2000/svg" version="1.1" xmlns:xlink="http://www.w3.org/1999/xlink" xmlns:svgjs="http://svgjs.dev/svgjs" viewBox="0 0 1920 1080" class="overflow-hidden rounded-md drop-shadow-lg transition duration-300 w-85screen rotate-90" style="overflow: hidden; height: 85vh;"><rect width="1920" height="1080" fill="#9d9d9e"/><g clip-path="url(&quot;#SvgjsClipPath1569&quot;)"><g transform="matrix(0.7544678833390833,0.8679160172561877,-0.8679160172561877,0.7544678833390833,697.7350427822525,-677.1038172063379)"><path d="M0,-1080C-3.630249441098678,-990.2209367539991,-22.32064400768856,-731.4135116173804,-21.781496646592068,-541.3256205239946C-21.242349285495575,-351.23772943060885,8.620000078170474,-131.86981172068838,3.2348841665789507,60.52734656031487C-2.150231745012573,252.9245048413181,-56.529661405935016,445.0850740377301,-54.09219211614121,613.0573291620248C-51.65472282634741,781.0295842863194,-1.8291226353996741,895.6849251031065,17.859699905341756,1068.3608773060826C37.54852244608318,1241.0368295090586,67.01735977919768,1467.1731885975614,64.04074312830738,1649.113042379881C61.06412647741709,1831.0528961622008,10.67345718805123,2074.85217372998,0,2160L 1920 2160 L 1920 -1080 Z" fill="url(&quot;#SvgjsLinearGradient1557&quot;)"/><path d="M160,-1080C157.03598575597772,-982.2353357124746,142.23205654590322,-664.0502453783599,142.21591453586623,-493.41201427484714C142.19977252582925,-322.77378317133434,157.67807006702162,-239.8082393296205,159.90314793977802,-56.170613378923434C162.12822581253442,127.46701257177364,147.58603112438973,408.94916888852435,155.56638177240455,608.4137414293352C163.54673242041937,807.8783139701461,207.13823599388664,967.7440542096944,207.7852518278669,1140.616821865942C208.43226766184713,1313.4895895221898,167.4126854142639,1475.7531510111448,159.4484767762861,1645.6503473668213C151.4842681383083,1815.5475437224977,159.90807946271434,2074.27505789447,160,2160L 1920 2160 L 1920 -1080 Z" fill="url(&quot;#SvgjsLinearGradient1558&quot;)"/><path d="M320,-1080C330.11178263720893,-999.9224662977033,378.9954443096664,-778.1073670142991,380.6706958232536,-599.5347977862201C382.34594733684077,-420.9622285581411,337.2989916623989,-192.3258476205941,330.0515090815229,-8.564584631525662C322.8040265006469,175.19667835754277,338.80697240206626,309.58345864850287,337.18580033799765,503.03278014819034C335.56462827392903,696.4821016478778,329.32034832874484,953.8275867319659,320.32447669711127,1152.1313443665993C311.3286050654777,1350.4351020012325,283.2646499977146,1524.8772166837568,283.2105705481961,1692.8553259559903C283.1564910986775,1860.8334352282238,313.86842842469935,2082.1425543259984,320,2160L 1920 2160 L 1920 -1080 Z" fill="url(&quot;#SvgjsLinearGradient1559&quot;)"/><path d="M480,-1080C474.3054044583713,-1000.1398684804818,436.6351810609948,-789.0042365188048,445.83242675022785,-600.8392108828907C455.0296724394609,-412.67418524697666,527.2432867956571,-146.66301496362217,535.1834741353983,48.99015381548426C543.1236614751396,244.6433225945907,501.6689810672125,394.7028211867341,493.47355078867497,573.079801791748C485.27812051013746,751.4567823967618,482.71785376697136,953.600952018107,486.0108924641732,1119.252037445567C489.30393116137503,1284.9031228730273,514.2335983825814,1393.5283205974365,513.2317829718859,1566.9863143565087C512.2299675611904,1740.444308115581,485.5386304953143,2061.1643857260847,480,2160L 1920 2160 L 1920 -1080 Z" fill="url(&quot;#SvgjsLinearGradient1560&quot;)"/><path d="M640,-1080C649.1778489550204,-986.2122591162574,691.454125601992,-688.4090352940317,695.0670937301227,-517.2735546975447C698.6800618582533,-346.13807410105767,676.1157631839989,-227.39643920177207,661.677808768784,-53.187116421078166C647.2398543535691,121.02220635961572,619.0260435604534,328.7228881498992,608.4393672388335,527.9823819866185C597.8526909172135,727.2418758233379,584.0219337093612,969.8202347360552,598.1577508390639,1142.369846599238C612.2935679687665,1314.9194584624206,686.28056182356,1393.675027598921,693.2542700170493,1563.2800531657147C700.2279782105386,1732.8850787325084,648.8757116695082,2060.5466755276193,640,2160L 1920 2160 L 1920 -1080 Z" fill="url(&quot;#SvgjsLinearGradient1561&quot;)"/><path d="M800,-1080C807.0234206034031,-983.0795585709533,833.7851234735832,-669.6904083514416,842.1405236204185,-498.4773514257194C850.4959237672539,-327.2642944999972,845.1775997606834,-233.549328778122,850.1324008810121,-52.72165844566679C855.0872020013409,128.1060118867884,868.4577693201325,388.91253723329726,871.8693303423912,586.4886705690117C875.28089136465,784.0648039047261,886.8910717953896,959.4419640763913,870.6017670145645,1132.7351415686198C854.3124622337394,1306.0283190608484,785.9004628265347,1455.03692578382,774.1335016574407,1626.2477355223832C762.3665404883466,1797.4585452609465,795.6889169429068,2071.0412892537306,800,2160L 1920 2160 L 1920 -1080 Z" fill="url(&quot;#SvgjsLinearGradient1562&quot;)"/><path d="M960,-1080C971.5925579421456,-974.5046299725371,1023.3531533205581,-660.2397434336409,1029.555347652874,-447.02777983522276C1035.7575419851896,-233.81581623680458,1007.29853020886,-20.681011017287034,997.2131659938948,199.27178159050922C987.1278017789296,419.2245741983055,986.5184707073831,646.8744712305308,969.0431623630822,872.6889758115547C951.5678540187812,1098.5034803925785,893.8685096552693,1339.6069717119112,892.361315928089,1554.158809076652C890.8541222009086,1768.7106464413928,948.7268859880148,2059.026468179442,960,2160L 1920 2160 L 1920 -1080 Z" fill="url(&quot;#SvgjsLinearGradient1563&quot;)"/><path d="M1120,-1080C1114.0228273062546,-1006.9871465682733,1088.8385250022195,-796.1767985585467,1084.1369638375277,-641.9228794096393C1079.4354026728358,-487.668960260732,1095.7630896740977,-311.7950357911568,1091.7906330118494,-154.47648510655574C1087.8181763496011,2.8420655780452933,1052.9341697261,158.4708546001816,1060.302223864038,301.98842469796676C1067.6702780019762,445.5059947957519,1124.292280093629,561.100835599442,1135.9989578394782,706.6289354801552C1147.7056355853274,852.1570353608683,1142.4706828909175,1012.2547427536824,1130.5422903391336,1175.1570239822456C1118.6138977873497,1338.0593052108088,1066.1856509186312,1519.9021268485756,1064.4286025287756,1684.0426228515346C1062.67155413892,1848.1831188544936,1110.7381004214626,2080.673770475256,1120,2160L 1920 2160 L 1920 -1080 Z" fill="url(&quot;#SvgjsLinearGradient1564&quot;)"/><path d="M1280,-1080C1269.58682394406,-971.8546617451575,1211.7810313984212,-658.8969445596603,1217.5209436643595,-431.127970470945C1223.2608559302978,-203.35899638222978,1306.3569209147295,62.671610943755724,1314.4394735956298,286.6138445322914C1322.5220262765301,510.5560781208271,1277.446267304655,715.8423260192001,1266.016259749761,912.5254310602692C1254.586252194867,1109.2085361013383,1243.5288048912262,1258.8000466220838,1245.859428266266,1466.7124747787057C1248.1900516413057,1674.6249029353276,1274.3099047110443,2044.4520791297844,1280,2160L 1920 2160 L 1920 -1080 Z" fill="url(&quot;#SvgjsLinearGradient1565&quot;)"/><path d="M1440,-1080C1434.7605246169696,-1024.9231416400046,1400.5573783142054,-895.0794436575244,1408.5631477018178,-749.5388498400279C1416.5689170894302,-603.9982560225313,1476.458039554196,-357.35593785072183,1488.034616325675,-206.7564370950211C1499.611193097154,-56.156936339320396,1483.7911715719033,30.271688604291583,1478.0226083306918,154.05815469417647C1472.2540450894803,277.84462078406136,1463.7498902809866,416.0540951388346,1453.4232368784062,535.9623594442883C1443.0965834758258,655.870623749742,1411.3372014337767,734.3370274223404,1416.06268791521,873.5077405268985C1420.7881743966434,1012.6784536314566,1480.5152638359157,1217.7450692160328,1481.7761557670065,1370.9866380716367C1483.0370476980972,1524.2282069272405,1430.5907321295897,1661.4549266724607,1423.6280395017552,1792.9571536605213C1416.6653468739207,1924.4593806485818,1437.2713399169593,2098.8261922767533,1440,2160L 1920 2160 L 1920 -1080 Z" fill="url(&quot;#SvgjsLinearGradient1566&quot;)"/><path d="M1600,-1080C1611.5442244223264,-1015.3037699166856,1668.9321574852047,-853.8524185891464,1669.265346533958,-691.8226195001135C1669.5985355827115,-529.7928204110807,1622.9617787975315,-262.34403837769435,1601.9991342925205,-107.82120546580316C1581.0364897875095,46.701627446088054,1551.2229172162538,78.50534572519271,1543.489479503892,235.3143779712338C1535.7560417915302,392.1234102172749,1537.7233260420376,660.0896081801532,1555.5985080183498,833.0329880104434C1573.473689994662,1005.9763678407337,1640.809621482742,1132.6467137681395,1650.7405713617652,1272.9746569529755C1660.6715212407885,1413.3026001378114,1623.6409691861168,1527.1630899449547,1615.1842072924892,1675.0006471194588C1606.7274453988616,1822.838204293963,1602.5307012154149,2079.1667745199097,1600,2160L 1920 2160 L 1920 -1080 Z" fill="url(&quot;#SvgjsLinearGradient1567&quot;)"/><path d="M1760,-1080C1760.879190372674,-964.1550594752189,1757.3510373830995,-597.8728255536756,1765.2751422360443,-384.9303568513132C1773.199247088989,-171.98788814895076,1806.7939373048166,-19.234188357108536,1807.5446291176686,197.65481221417465C1808.2953209305206,414.5438127854578,1778.3772064883933,703.9724679295718,1769.7792931131567,916.4036465763859C1761.18137973792,1128.8348252232,1757.5870310517755,1264.9758251911235,1755.9571488662493,1472.241884095059C1754.3272666807231,1679.5079429989946,1759.326191477708,2045.3736473491765,1760,2160L 1920 2160 L 1920 -1080 Z" fill="url(&quot;#SvgjsLinearGradient1568&quot;)"/></g></g><defs><linearGradient x1="0.1" y1="0" x2="0" y2="1" id="SvgjsLinearGradient1557"><stop stop-color="#9d9d9e" offset="0"/><stop stop-color="#9d9d9e" offset="0"/></linearGradient><linearGradient x1="0.1" y1="0" x2="0" y2="1" id="SvgjsLinearGradient1558"><stop stop-color="#a5a5a6" offset="0"/><stop stop-color="#a5a5a6" offset="0.08333333333333333"/></linearGradient><linearGradient x1="0.1" y1="0" x2="0" y2="1" id="SvgjsLinearGradient1559"><stop stop-color="#adadae" offset="0"/><stop stop-color="#adadae" offset="0.16666666666666666"/></linearGradient><linearGradient x1="0.1" y1="0" x2="0" y2="1" id="SvgjsLinearGradient1560"><stop stop-color="#b6b6b6" offset="0"/><stop stop-color="#b6b6b6" offset="0.25"/></linearGradient><linearGradient x1="0.1" y1="0" x2="0" y2="1" id="SvgjsLinearGradient1561"><stop stop-color="#bebebe" offset="0"/><stop stop-color="#bebebe" offset="0.3333333333333333"/></linearGradient><linearGradient x1="0.1" y1="0" x2="0" y2="1" id="SvgjsLinearGradient1562"><stop stop-color="#c6c6c7" offset="0"/><stop stop-color="#c6c6c7" offset="0.4166666666666667"/></linearGradient><linearGradient x1="0.1" y1="0" x2="0" y2="1" id="SvgjsLinearGradient1563"><stop stop-color="#cececf" offset="0"/><stop stop-color="#cececf" offset="0.5"/></linearGradient><linearGradient x1="0.1" y1="0" x2="0" y2="1" id="SvgjsLinearGradient1564"><stop stop-color="#d6d6d7" offset="0"/><stop stop-color="#d6d6d7" offset="0.5833333333333334"/></linearGradient><linearGradient x1="0.1" y1="0" x2="0" y2="1" id="SvgjsLinearGradient1565"><stop stop-color="#dfdfdf" offset="0"/><stop stop-color="#dfdfdf" offset="0.6666666666666666"/></linearGradient><linearGradient x1="0.1" y1="0" x2="0" y2="1" id="SvgjsLinearGradient1566"><stop stop-color="#e7e7e7" offset="0"/><stop stop-color="#e7e7e7" offset="0.75"/></linearGradient><linearGradient x1="0.1" y1="0" x2="0" y2="1" id="SvgjsLinearGradient1567"><stop stop-color="#efefef" offset="0"/><stop stop-color="#efefef" offset="0.8333333333333334"/></linearGradient><linearGradient x1="0.1" y1="0" x2="0" y2="1" id="SvgjsLinearGradient1568"><stop stop-color="#f7f7f7" offset="0"/><stop stop-color="#f7f7f7" offset="0.9166666666666666"/></linearGradient><clipPath id="SvgjsClipPath1569"><rect width="1920" height="1080"/></clipPath></defs></svg>